<svg height="512" viewBox="0 0 512 512" width="512" xmlns="http://www.w3.org/2000/svg"><g><g fill="#57a4ff"><path d="m256 152a120 120 0 1 0 120 120 120.005 120.005 0 0 0 -120-120zm0 136a16 16 0 1 1 16-16 16 16 0 0 1 -16 16z"/><path d="m240 80h32v24h-32z"/><path d="m136.14 391.22-30 56.71a16 16 0 0 0 27.72 16l27.94-52.81-21.99-17.78z"/><path d="m405.86 447.93-33.07-55.17-25.22 20.11-.03.02 30.6 51.04a16 16 0 0 0 27.72-16z"/><path d="m138.45 151.98 23.97-19.52.01-.01.82-.82-22.62-22.63-22.63 22.63 20.4 20.39z"/><path d="m357.28 137.96 9.42 7.68 7.84 6.38 20.4-20.39-22.63-22.63-22.62 22.63.82.82z"/></g><g fill="#004fac"><path d="m417.57 165.57a8 8 0 0 0 11.31 0l16.97-16.97a47.995 47.995 0 0 0 0-67.88l-22.62-22.63a48.055 48.055 0 0 0 -67.89 0l-16.97 16.97a8 8 0 0 0 0 11.31l22.63 22.63-13.01 13.01a174.951 174.951 0 0 0 -67.99-24.37v-9.64h32a8 8 0 0 0 8-8v-28a28.031 28.031 0 0 0 -28-28h-72a28.031 28.031 0 0 0 -28 28v28a8 8 0 0 0 8 8h32v9.64a174.884 174.884 0 0 0 -67.41 24.01l-12.65-12.65 22.63-22.63a8 8 0 0 0 0-11.31l-16.97-16.97a47.995 47.995 0 0 0 -67.88 0l-22.63 22.63a47.995 47.995 0 0 0 0 67.88l16.97 16.97a8 8 0 0 0 11.31 0l22.63-22.63 9.23 9.22a175.657 175.657 0 0 0 -.3 239.36l-27.8 52.55a24.025 24.025 0 0 0 20.83 35.87 24.288 24.288 0 0 0 6.25-.83 23.881 23.881 0 0 0 14.58-11.18c.05-.08.09-.17.14-.26l23.9-45.17a175.677 175.677 0 0 0 179.98 1.39l26.44 44.1a23.837 23.837 0 0 0 14.54 11.12 24.288 24.288 0 0 0 6.25.83 24.007 24.007 0 0 0 20.75-36 .746.746 0 0 0 -.07-.12l-29.91-49.9a175.677 175.677 0 0 0 2.42-241.27l9.71-9.71zm-209.57-93.57v-20a12.01 12.01 0 0 1 12-12h72a12.01 12.01 0 0 1 12 12v20zm56 16v8h-16v-8zm-174.28 60.6-11.32-11.32a32 32 0 0 1 0-45.25l22.63-22.63a32 32 0 0 1 45.25 0l11.32 11.32zm61.36-17.82q-6.45 4.8-12.43 10.18l-9.33-9.33 11.31-11.32zm-24.21 329.25a8.007 8.007 0 0 1 -10.87 2.82 8 8 0 0 1 -2.93-10.92c.05-.09.1-.17.14-.26l25.63-48.45q6.075 5.43 12.64 10.29zm272.09-8.06a8.009 8.009 0 0 1 -2.96 10.88 8.008 8.008 0 0 1 -10.93-2.92c-.03-.04-.05-.08-.07-.11l-26.76-44.64q6.57-4.71 12.68-9.98zm17.04-179.97c0 88.22-71.78 160-160 160s-160-71.78-160-160 71.78-160 160-160 160 71.78 160 160zm-54.55-140.82 10.86-10.87 11.32 11.32-9.78 9.77q-5.95-5.385-12.4-10.22zm-6.11-50.46 11.32-11.32a32.043 32.043 0 0 1 45.25 0l22.63 22.63a32 32 0 0 1 0 45.25l-11.31 11.32z"/><path d="m256 144a128 128 0 1 0 128 128 128.144 128.144 0 0 0 -128-128zm8 239.71v-7.71a8 8 0 0 0 -16 0v7.71a112.175 112.175 0 0 1 -103.71-103.71h7.71a8 8 0 0 0 0-16h-7.71a112.175 112.175 0 0 1 103.71-103.71v7.71a8 8 0 0 0 16 0v-7.71a112.175 112.175 0 0 1 103.71 103.71h-7.71a8 8 0 0 0 0 16h7.71a112.175 112.175 0 0 1 -103.71 103.71z"/><path d="m301.66 306.34-24.01-24a23.737 23.737 0 0 0 2.35-10.34 24.031 24.031 0 0 0 -16.12-22.66 8.451 8.451 0 0 0 .12-1.34v-56a8 8 0 0 0 -16 0v56a8.451 8.451 0 0 0 .12 1.34 23.994 23.994 0 0 0 7.88 46.66 23.737 23.737 0 0 0 10.34-2.35l24 24.01a8 8 0 0 0 11.32-11.32zm-45.66-26.34a8 8 0 1 1 8-8 8.011 8.011 0 0 1 -8 8z"/><path d="m447.591 203.72a8 8 0 0 0 -3.931 10.609 136.3 136.3 0 0 1 0 113.342 8 8 0 1 0 14.539 6.678 152.292 152.292 0 0 0 0-126.7 8 8 0 0 0 -10.608-3.929z"/><path d="m487.3 194.312a8 8 0 0 0 -14.541 6.675 168.441 168.441 0 0 1 0 140.026 8 8 0 1 0 14.541 6.675 184.439 184.439 0 0 0 0-153.376z"/><path d="m64.339 203.72a8 8 0 0 0 -10.61 3.932 152.307 152.307 0 0 0 0 126.7 8 8 0 0 0 14.542-6.677 136.29 136.29 0 0 1 0-113.342 8 8 0 0 0 -3.932-10.613z"/><path d="m35.237 190.379a8 8 0 0 0 -10.607 3.933 184.429 184.429 0 0 0 0 153.376 8 8 0 0 0 14.541-6.675 168.431 168.431 0 0 1 0-140.026 8 8 0 0 0 -3.934-10.608z"/></g></g></svg>